<?xml version="1.0" standalone="no"?><!DOCTYPE svg PUBLIC "-//W3C//DTD SVG 1.1//EN" "http://www.w3.org/Graphics/SVG/1.1/DTD/svg11.dtd"><svg t="1787709148263" class="icon" viewBox="0 0 1024 1024" version="1.1" xmlns="http://www.w3.org/2000/svg" p-id="13992" xmlns:xlink="http://www.w3.org/1999/xlink" width="200" height="200"><path fill="#2c2c2c" d="M916.672 304.832a37.12 37.12 0 0 1 1.28 52.032L826.88 448.512l63.36 63.808c41.792 42.048 41.792 110.08 0 152.064l-144.896 145.664a310.976 310.976 0 0 1-430.272 10.56l-11.008-10.56-18.88-19.008-126.144 126.784a35.968 35.968 0 0 1-46.4 3.2l-5.248-4.416a37.12 37.12 0 0 1-5.312-46.912l4.16-4.928 126.08-126.784-21.504-21.568a314.496 314.496 0 0 1 0-443.264l144.896-145.664a106.56 106.56 0 0 1 151.296 0L579.84 200.768l91.328-91.648a36.16 36.16 0 0 1 46.592-3.2l5.184 4.416c12.8 12.416 15.04 32.128 5.376 46.912l-4.032 4.928L632.96 253.824l140.736 141.632 91.2-91.648a35.968 35.968 0 0 1 46.4-3.008l5.376 4.032z m-77.056 258.176L456.32 177.92a35.456 35.456 0 0 0-50.432 0L260.992 323.52a242.688 242.688 0 0 0 0 342.08l93.44 93.76 9.6 9.088a239.808 239.808 0 0 0 330.688-9.088l144.896-145.664a35.84 35.84 0 0 0 0-50.688z" p-id="13993"></path></svg>