<?xml version="1.0" standalone="no"?><!DOCTYPE svg PUBLIC "-//W3C//DTD SVG 1.1//EN" "http://www.w3.org/Graphics/SVG/1.1/DTD/svg11.dtd"><svg t="1787731582104" class="icon" viewBox="0 0 1028 1024" version="1.1" xmlns="http://www.w3.org/2000/svg" p-id="8906" xmlns:xlink="http://www.w3.org/1999/xlink" width="200.78125" height="200"><path d="M888.32 207.718l-2.1 25.447a11.11 11.11 0 0 1-19.302 6.656l-16.384-17.715-1.894-2.048a90.317 90.317 0 0 0-57.856-27.904l-30.72-2.56a11.52 11.52 0 0 1-6.86-19.815l21.913-20.377c16.896-15.668 27.136-37.376 28.57-60.672l1.689-26.983a11.11 11.11 0 0 1 19.456-6.707l17.92 20.173c15.565 17.408 37.018 28.262 59.904 30.208l29.85 2.457a11.52 11.52 0 0 1 7.782 18.842c-0.614 0.717-1.28 1.28-1.997 1.946l-20.531 19.097-2.048 1.895c-15.872 15.206-25.6 35.84-27.443 58.06z m114.227 38.656l-0.512 7.168a5.94 5.94 0 0 1-10.393 3.584l-4.864-5.324a50.944 50.944 0 0 0-33.127-16.282l-9.728-0.82a6.144 6.144 0 0 1-3.584-10.598l6.656-6.246a50.995 50.995 0 0 0 16.128-34.253l0.512-7.68a5.94 5.94 0 0 1 10.394-3.584l5.12 5.735c8.704 9.83 20.838 15.923 33.792 17.05l9.113 0.767a6.144 6.144 0 0 1 3.687 10.599l-7.168 6.656a50.995 50.995 0 0 0-16.026 33.228zM358.4 784.282H233.78q-54.426 0-92.878-38.452-38.502-38.502-38.502-92.928V405.35q0-54.425 38.502-92.928 38.452-38.45 92.877-38.45h475.136q54.426 0 92.877 38.45 38.502 38.503 38.502 92.928v247.552q0 54.426-38.502 92.928-38.451 38.452-92.877 38.452H595.968q-25.754 0-43.264 18.841l-88.218 94.823h-0.05q-5.12 5.478-12.033 8.448-6.86 3.02-14.387 3.02-3.584 0-7.066-0.716-3.481-0.666-6.758-2.048-3.277-1.332-6.246-3.328-2.97-1.997-5.479-4.506-2.509-2.509-4.454-5.478-1.997-2.919-3.328-6.196-1.383-3.328-2.048-6.81-0.717-3.48-0.717-7.014 0-6.86 2.509-13.21 2.509-6.4 7.168-11.417l88.166-94.822q39.015-41.882 96.205-41.882h112.896q24.474 0 41.78-17.305 17.305-17.306 17.305-41.78V405.35q0-24.473-17.306-41.779-17.305-17.305-41.779-17.305H233.728q-24.474 0-41.78 17.305-17.305 17.306-17.305 41.78v247.551q0 24.474 17.306 41.78 17.305 17.305 41.779 17.305H358.4v0.051q3.584 0 7.066 0.717 3.481 0.666 6.758 2.048 3.277 1.383 6.246 3.328 2.919 1.997 5.479 4.506 2.509 2.509 4.454 5.478 1.997 2.919 3.328 6.195 1.383 3.328 2.048 6.81 0.717 3.482 0.717 7.014 0 3.584-0.717 7.066-0.665 3.482-2.048 6.758-1.331 3.277-3.328 6.247-1.945 2.97-4.454 5.478-2.56 2.509-5.479 4.455-2.97 2.048-6.246 3.379-3.277 1.331-6.758 2.048-3.533 0.665-7.066 0.665v0.052z m-51.2-294.964q-3.84 0-7.68 0.717-3.738 0.768-7.322 2.253t-6.758 3.584q-3.226 2.15-5.94 4.915-2.713 2.714-4.863 5.94-2.15 3.174-3.584 6.758-1.536 3.584-2.253 7.321-0.768 3.79-0.768 7.68 0 3.84 0.768 7.63t2.202 7.32q1.536 3.585 3.635 6.76 2.15 3.225 4.864 5.938 2.713 2.714 5.939 4.864t6.758 3.636q3.584 1.484 7.373 2.201 3.789 0.768 7.629 0.768t7.68-0.717q3.738-0.768 7.322-2.252 3.584-1.485 6.758-3.584 3.174-2.202 5.94-4.916 2.713-2.713 4.863-5.939 2.15-3.174 3.584-6.758 1.536-3.584 2.253-7.322 0.768-3.789 0.768-7.68 0-3.84-0.768-7.629t-2.253-7.321q-1.433-3.584-3.584-6.759-2.15-3.225-4.864-5.939-2.765-2.765-5.939-4.864-3.226-2.15-6.758-3.635-3.584-1.485-7.373-2.253-3.789-0.717-7.68-0.717z m168.653 0q-3.84 0-7.68 0.717-3.738 0.768-7.322 2.253t-6.758 3.584q-3.175 2.15-5.94 4.915-2.713 2.714-4.863 5.94-2.15 3.174-3.584 6.758-1.536 3.584-2.253 7.321-0.768 3.79-0.768 7.68 0 3.84 0.768 7.63t2.253 7.32q1.433 3.585 3.584 6.76 2.15 3.225 4.864 5.938 2.764 2.714 5.939 4.864 3.225 2.15 6.758 3.636 3.584 1.484 7.373 2.201 3.789 0.768 7.68 0.768 3.789 0 7.578-0.717 3.788-0.768 7.372-2.252 3.584-1.485 6.759-3.584 3.225-2.202 5.939-4.916 2.714-2.713 4.864-5.939 2.15-3.174 3.584-6.758 1.536-3.584 2.253-7.322 0.768-3.789 0.768-7.68 0-3.84-0.768-7.629t-2.202-7.321q-1.536-3.584-3.635-6.759-2.15-3.225-4.864-5.939-2.714-2.765-5.94-4.864-3.225-2.15-6.758-3.635-3.584-1.485-7.372-2.253-3.79-0.717-7.63-0.717z m168.653 0q-3.84 0-7.68 0.717-3.738 0.768-7.322 2.253t-6.758 3.584q-3.175 2.15-5.94 4.915-2.713 2.714-4.864 5.94-2.15 3.174-3.584 6.758-1.536 3.584-2.252 7.321-0.768 3.79-0.768 7.68 0 3.84 0.768 7.63t2.252 7.32q1.434 3.585 3.584 6.76 2.15 3.225 4.864 5.938 2.765 2.714 5.94 4.864 3.225 2.15 6.81 3.636 3.583 1.484 7.32 2.201 3.79 0.768 7.68 0.768 3.79 0 7.578-0.717 3.79-0.768 7.373-2.252 3.584-1.485 6.759-3.584 3.225-2.202 5.939-4.916 2.713-2.713 4.864-5.939 2.15-3.174 3.584-6.758 1.536-3.584 2.253-7.322 0.768-3.789 0.768-7.68 0-3.84-0.768-7.629t-2.202-7.321q-1.536-3.584-3.635-6.759-2.15-3.225-4.864-5.939-2.714-2.765-5.94-4.864-3.225-2.15-6.758-3.635-3.584-1.485-7.373-2.253-3.788-0.717-7.628-0.717z" fill="#2c2c2c" p-id="8907"></path></svg>